<svg xmlns="http://www.w3.org/2000/svg" viewBox="0 0 256 256" fill="none">
  <rect width="256" height="256" rx="72" fill="#ECEFEC"/>
  <path d="M72 76H184L166 112V188C166 194.627 160.627 200 154 200H102C95.3726 200 90 194.627 90 188V112L72 76Z" fill="#5F5E5E"/>
  <path d="M102 88H154L146 106V182H110V106L102 88Z" fill="#F9F9F7"/>
  <circle cx="128" cy="136" r="18" fill="#DEE4E0"/>
  <path d="M104 66C104 52.7452 114.745 42 128 42C141.255 42 152 52.7452 152 66V76H140V66C140 59.3726 134.627 54 128 54C121.373 54 116 59.3726 116 66V76H104V66Z" fill="#6D5D44"/>
</svg>
